<svg width="400" height="400" viewBox="0 0 400 400" version="1.1" xmlns="http://www.w3.org/2000/svg" xmlns:xlink="http://www.w3.org/1999/xlink">
<title>Empty</title>
<desc>Created using Figma</desc>
<g id="Canvas" transform="translate(1226 213)">
<clipPath id="clip-0" clip-rule="evenodd">
<path d="M -1226 -213L -826 -213L -826 187L -1226 187L -1226 -213Z" fill="#FFFFFF"/>
</clipPath>
<g id="Empty" clip-path="url(#clip-0)">
<path d="M -1226 -213L -826 -213L -826 187L -1226 187L -1226 -213Z" fill="#E5E5E5"/>
<g id="Group">
<g id="Group">
<g id="Vector">
<use xlink:href="#path0_fill" transform="translate(-1174 -132.2)" fill="#BDBDBD"/>
</g>
<g id="Vector">
<use xlink:href="#path1_fill" transform="translate(-1127.2 -89.8)" fill="#E3E3E3"/>
</g>
<g id="Vector">
<use xlink:href="#path2_fill" transform="translate(-1136.2 -59.1688)" fill="#8F8F8F"/>
</g>
<g id="Vector">
<use xlink:href="#path3_fill" transform="translate(-992.469 -59.1688)" fill="#8F8F8F"/>
</g>
<g id="Vector">
<use xlink:href="#path4_fill" transform="translate(-1053.7 -1.2)" fill="#231F20"/>
</g>
<g id="Vector">
<use xlink:href="#path5_fill" transform="translate(-1124.9 76.4552)" fill="#8A8A8A"/>
</g>
<g id="Vector">
<use xlink:href="#path6_fill" transform="translate(-997.4 76.4556)" fill="#8A8A8A"/>
</g>
<g id="Vector">
<use xlink:href="#path7_fill" transform="translate(-1179 -137.2)" fill="#FFFFFF"/>
</g>
</g>
<g id="Group">
<g id="Vector">
<use xlink:href="#path8_fill" transform="translate(-1033.7 -200)" fill="#FFFFFF"/>
</g>
<g id="Vector">
<use xlink:href="#path9_fill" transform="translate(-1048.6 -135.7)" fill="#FFFFFF"/>
</g>
<g id="Vector">
<use xlink:href="#path10_fill" transform="translate(-1041.6 -162.8)" fill="#FFFFFF"/>
</g>
</g>
</g>
<g id="Subtract">
<use xlink:href="#path11_fill" transform="translate(-1226 -213)" fill="#FFFFFF"/>
</g>
<g id="Group">
<g id="Vector">
<use xlink:href="#path12_fill" transform="translate(-1093.37 26.1705)" fill="#B8B8B8"/>
</g>
<g id="Vector">
<use xlink:href="#path13_fill" transform="translate(-1084.4 26.7397)" fill="#FFFFFF"/>
</g>
<g id="Vector">
<use xlink:href="#path14_fill" transform="translate(-1105 -29.6613)" fill="#231F20"/>
</g>
<g id="Vector">
<use xlink:href="#path15_fill" transform="translate(-979.7 -29.6603)" fill="#231F20"/>
</g>
<g id="Group">
<g id="Vector">
<use xlink:href="#path16_fill" transform="translate(-978 -63.9)" fill="#231F20"/>
</g>
<g id="Vector">
<use xlink:href="#path17_fill" transform="translate(-1102.61 -64)" fill="#231F20"/>
</g>
</g>
</g>
</g>
</g>
<defs>
<path id="path0_fill" d="M 296.4 318.1L 288.4 114.1C 288.4 51.2 237.2 1.52588e-06 174.3 1.52588e-06C 173.7 1.52588e-06 173.1 0.0999969 172.6 0.299997C 172.5 0.299997 162.3 4 150.4 4C 138.3 4 124.6 0.199998 124.5 0.199998C 124.1 0.0999985 123.6 1.52588e-06 123.2 1.52588e-06C 60.2 1.52588e-06 9 51.2 9 114.1L 0 318.1L 296.4 318.1Z"/>
<path id="path1_fill" d="M 137 56.3C 144 36.3 165.8 25.8 185.8 32.8L 190.6 34.5C 170.4 13.6 138.2 3.05176e-06 101.9 3.05176e-06C 65.7 3.05176e-06 33.5 13.5 13.2 34.5L 18 32.8C 38 25.8 59.8 36.3 66.8 56.3C 73.8 76.3 63.3 98.1 43.3 105.1L -7.6294e-07 120.3C 17 151.1 56.2 172.6 101.9 172.6C 147.6 172.6 186.9 151.1 203.8 120.3L 160.5 105.1C 140.5 98.1 130 76.3 137 56.3Z"/>
<path id="path2_fill" d="M 75.8 25.6688C 68.8 5.66884 47 -4.83116 27 2.16884L 22.2 3.86884C 8.3 18.2688 -7.62939e-07 36.2688 -7.62939e-07 55.6688C -7.62939e-07 67.7688 3.2 79.1688 8.9 89.6688L 52.2 74.4688C 72.3 67.4688 82.8 45.6688 75.8 25.6688Z"/>
<path id="path3_fill" d="M 55.7688 3.86884L 50.9688 2.16884C 30.9688 -4.83116 9.16884 5.66884 2.16884 25.6688C -4.83116 45.6688 5.66883 67.4688 25.6688 74.4688L 68.9688 89.6688C 74.6688 79.2688 77.8688 67.7688 77.8688 55.6688C 78.0688 36.2688 69.7688 18.2688 55.7688 3.86884Z"/>
<path id="path4_fill" d="M 28.4 27C 44.0849 27 56.8 20.9558 56.8 13.5C 56.8 6.04415 44.0849 -6.10352e-06 28.4 -6.10352e-06C 12.7151 -6.10352e-06 3.05176e-06 6.04415 3.05176e-06 13.5C 3.05176e-06 20.9558 12.7151 27 28.4 27Z"/>
<path id="path5_fill" d="M 29.3044 0.144766C 29.3044 0.144766 59.8044 30.7447 64.2044 38.2447C 68.6044 45.7447 71.6044 54.9448 71.6044 54.9448L 58.3044 44.4448L 60.6044 57.8447L 51.0044 51.6448L 56.6044 67.3447C 56.6044 67.3447 38.6044 60.8448 22.0044 48.4448C 5.40438 35.9448 -21.1956 -2.65523 29.3044 0.144766Z"/>
<path id="path6_fill" d="M 42.3 0.144416C 42.3 0.144416 11.8 30.7444 7.4 38.2444C 3 45.7444 6.10352e-06 54.9444 6.10352e-06 54.9444L 13.3 44.4444L 11 57.8444L 20.6 51.6444L 15 67.3444C 15 67.3444 33 60.8444 49.6 48.4444C 66.2 36.0444 92.8 -2.65558 42.3 0.144416Z"/>
<path id="path7_fill" d="M 306.3 324.1C 306.3 323.9 306.3 323.7 306.3 323.5L 298.3 119.1C 298.3 87.3 285.9 57.4 263.4 34.9C 240.9 12.4 211 1.52588e-06 179.2 1.52588e-06C 178 1.52588e-06 176.9 0.2 175.8 0.6C 175.5 0.7 166.1 4 155.3 4C 143.9 4 130.8 0.399999 130.7 0.399999C 129.8 0.199999 128.9 1.52588e-06 128 1.52588e-06C 96.2 1.52588e-06 66.3 12.4 43.8 34.9C 21.4 57.4 9 87.3 9 119.1L 0 323.5C 0 323.7 0 323.9 0 324.1L 306.3 324.1ZM 19 119.1C 19 58.9 67.8 10 128.1 10C 128.1 10 142.4 14 155.4 14C 168.4 14 179.3 10 179.3 10C 239.5 10 288.4 58.8 288.4 119.1L 296.4 323.5L 10 323.5L 19 119.1Z"/>
<path id="path8_fill" d="M 10.1 31.9C 14 31.9 17.6 31.7 20.9 31.5L 18.4 19.8C 18.4 19.8 15.1 1.49011e-09 12 1.49011e-09C 8.9 1.49011e-09 3.5 19.5 3.5 19.5L 3.05176e-06 31.6C 3.1 31.7 6.49999 31.9 10.1 31.9Z"/>
<path id="path9_fill" d="M 24 1.6C 18.4 1.6 11.2 0.800002 5.49999 1.52588e-06L -6.10352e-06 19C -6.10352e-06 19 -5.72205e-06 26.6 23.5 26.6C 47 26.6 47 19 47 19L 42.9 1.52588e-06C 37.1 0.800002 29.7 1.6 24 1.6Z"/>
<path id="path10_fill" d="M 6.20001 -7.62939e-07L -6.10352e-06 21.7C 4.59999 22.3 10.5 22.8 17 22.8C 23.8 22.8 29.9 22.3 34.7 21.6L 30 -7.62939e-07C 25.9 0.399999 21.6 0.799998 18 0.799998C 14.4 0.699998 10.3 0.399999 6.20001 -7.62939e-07Z"/>
<path id="path11_fill" fill-rule="evenodd" d="M 400 0L 0 0L 0 400L 400 400L 400 0ZM 269.106 45.0397C 262.139 35.7241 255.559 26.9259 239 20C 201.581 4.3492 108.5 24 65.5 74.5C 7.57971 142.523 15.3326 236.546 53.4999 302.5C 91.6672 368.454 157.925 370.698 211.808 369.949C 265.692 369.199 338.297 336.968 360 292C 379.079 252.468 380.456 244.573 385.606 215.047C 386.314 210.987 387.093 206.517 388 201.5C 395.292 161.154 373.12 99.138 318 80C 287.272 69.3311 277.882 56.7748 269.106 45.0397Z"/>
<path id="path12_fill" d="M 127.465 0.0691924C 126.465 0.269192 125.265 0.369192 124.065 0.569192C 123.165 5.36919 121.165 11.3692 116.765 14.5692C 108.665 20.4692 66.6652 22.4692 66.6652 22.4692C 66.6652 22.4692 24.6652 20.4692 16.5652 14.5692C 12.1652 11.3692 10.1652 5.36919 9.26524 0.569192C 7.96524 0.369192 6.86524 0.169192 5.86524 0.0691924C 2.16524 -0.530808 -0.734763 2.86919 0.165237 6.46919C 2.66524 15.8692 8.56524 23.7692 15.8652 30.2692C 44.6652 56.2692 88.8652 56.2692 117.665 30.2692C 124.965 23.6692 130.765 15.7692 133.365 6.46919C 134.065 2.86919 131.165 -0.530808 127.465 0.0691924Z"/>
<path id="path13_fill" d="M 7.5 14C 15.6 19.9 57.6 21.9 57.6 21.9C 57.6 21.9 99.6 19.9 107.7 14C 112.1 10.8 114.1 4.8 115 -3.05176e-06C 103.1 1.7 82.1 4.2 57.5 4.6C 32.9 4.2 11.9 1.7 3.8147e-07 -3.05176e-06C 1 4.8 3 10.8 7.5 14Z"/>
<path id="path14_fill" d="M 15.9 9.70103C 23 9.70103 29 14.401 31.1 20.801C 31.6 19.301 31.9 17.601 31.9 15.901C 31.9 7.10103 24.8 0.00102847 16 0.00102847C 7.1 -0.0989715 0 7.10103 0 15.901C 0 17.601 0.3 19.201 0.8 20.801C 2.8 14.301 8.8 9.70103 15.9 9.70103Z"/>
<path id="path15_fill" d="M 15.8 9.7C 22.9 9.7 28.9 14.4 31 20.8C 31.5 19.3 31.8 17.6 31.8 15.9C 31.8 7.1 24.7 -7.62939e-07 15.9 -7.62939e-07C 7.1 -7.62939e-07 3.05176e-06 7.1 3.05176e-06 15.9C 3.05176e-06 17.6 0.299998 19.2 0.799998 20.8C 2.7 14.3 8.70001 9.7 15.8 9.7Z"/>
<path id="path16_fill" d="M 16.9 8.13973C 23.3 11.1397 27.4 16.6397 27.4 21.5397C 28.3 20.8397 29 19.9397 29.5 18.8397C 32.1 13.3397 27.7 5.93973 19.8 2.13973C 11.8 -1.66027 3.3 -0.260273 0.699997 5.23973C 0.199997 6.33973 -1.42109e-14 7.43973 -1.42109e-14 8.53973C 3.7 5.33973 10.5 5.03973 16.9 8.13973Z"/>
<path id="path17_fill" d="M 13.3099 8.23973C 6.90992 11.2397 2.80992 16.7397 2.80992 21.6397C 1.90992 20.9397 1.20992 20.0397 0.709917 18.9397C -1.79008 13.4397 2.50992 5.93973 10.5099 2.13973C 18.5099 -1.66027 27.0099 -0.260273 29.6099 5.23973C 30.1099 6.33973 30.3099 7.43973 30.3099 8.53973C 26.6099 5.43973 19.8099 5.13973 13.3099 8.23973Z"/>
</defs>
</svg>
