<svg width="100" height="100" viewBox="0 0 100 100" version="1.1" xmlns="http://www.w3.org/2000/svg" xmlns:xlink="http://www.w3.org/1999/xlink">
<title>Group</title>
<desc>Created using Figma</desc>
<g id="Canvas" transform="translate(-1597 387)">
<g id="Group">
<g id="Vector">
<use xlink:href="#path0_fill" transform="translate(1597 -387)" fill="#231F20"/>
</g>
<g id="PTS">
<use xlink:href="#path1_fill" transform="translate(1507 -346)" fill="#FFFFFF"/>
</g>
</g>
</g>
<defs>
<path id="path0_fill" d="M 50 0C 22.3858 0 0 22.3858 0 50C 0 77.6142 22.3858 100 50 100C 77.6142 100 100 77.6142 100 50C 100 22.3858 77.6142 0 50 0Z"/>
<path id="path1_fill" d="M 127.975 14.068L 127.975 19L 125.923 19L 125.923 6.292L 130.243 6.292C 131.707 6.292 132.805 6.64 133.537 7.336C 134.281 8.032 134.653 8.986 134.653 10.198C 134.653 11.398 134.275 12.346 133.519 13.042C 132.763 13.726 131.671 14.068 130.243 14.068L 127.975 14.068ZM 130.027 12.394C 131.719 12.394 132.565 11.662 132.565 10.198C 132.565 9.478 132.361 8.932 131.953 8.56C 131.557 8.176 130.915 7.984 130.027 7.984L 127.975 7.984L 127.975 12.394L 130.027 12.394ZM 144.624 6.292L 144.624 7.948L 141.078 7.948L 141.078 19L 139.008 19L 139.008 7.948L 135.48 7.948L 135.48 6.292L 144.624 6.292ZM 154.507 15.616C 154.507 16.24 154.357 16.822 154.057 17.362C 153.757 17.89 153.301 18.316 152.689 18.64C 152.077 18.964 151.327 19.126 150.439 19.126C 149.575 19.126 148.801 18.976 148.117 18.676C 147.433 18.364 146.887 17.932 146.479 17.38C 146.071 16.828 145.837 16.192 145.777 15.472L 147.973 15.472C 148.033 16.024 148.267 16.498 148.675 16.894C 149.095 17.29 149.653 17.488 150.349 17.488C 150.973 17.488 151.453 17.32 151.789 16.984C 152.137 16.648 152.311 16.216 152.311 15.688C 152.311 15.232 152.185 14.86 151.933 14.572C 151.681 14.272 151.369 14.038 150.997 13.87C 150.625 13.702 150.115 13.51 149.467 13.294C 148.675 13.042 148.027 12.79 147.523 12.538C 147.031 12.286 146.611 11.92 146.263 11.44C 145.915 10.96 145.741 10.33 145.741 9.55C 145.741 8.866 145.909 8.266 146.245 7.75C 146.581 7.234 147.061 6.838 147.685 6.562C 148.309 6.274 149.029 6.13 149.845 6.13C 151.141 6.13 152.167 6.442 152.923 7.066C 153.691 7.69 154.129 8.506 154.237 9.514L 152.023 9.514C 151.939 9.034 151.711 8.626 151.339 8.29C 150.979 7.942 150.481 7.768 149.845 7.768C 149.269 7.768 148.807 7.918 148.459 8.218C 148.111 8.506 147.937 8.926 147.937 9.478C 147.937 9.91 148.057 10.27 148.297 10.558C 148.537 10.834 148.837 11.056 149.197 11.224C 149.569 11.38 150.073 11.566 150.709 11.782C 151.513 12.034 152.167 12.292 152.671 12.556C 153.187 12.808 153.619 13.18 153.967 13.672C 154.327 14.164 154.507 14.812 154.507 15.616Z"/>
</defs>
</svg>
