<svg width="100" height="100" viewBox="0 0 100 100" version="1.1" xmlns="http://www.w3.org/2000/svg" xmlns:xlink="http://www.w3.org/1999/xlink">
<title>Group</title>
<desc>Created using Figma</desc>
<g id="Canvas" transform="translate(-554 -2124)">
<g id="Group">
<g id="Vector">
<use xlink:href="#path0_fill" transform="translate(554 2124)" fill="#231F20"/>
</g>
<g id="CONTRIBUTOR">
<use xlink:href="#path1_fill" transform="translate(575.987 2199.51)" fill="#FFFFFF"/>
<use xlink:href="#path2_fill" transform="translate(575.987 2199.51)" fill="#FFFFFF"/>
<use xlink:href="#path3_fill" transform="translate(575.987 2199.51)" fill="#FFFFFF"/>
<use xlink:href="#path4_fill" transform="translate(575.987 2199.51)" fill="#FFFFFF"/>
<use xlink:href="#path5_fill" transform="translate(575.987 2199.51)" fill="#FFFFFF"/>
<use xlink:href="#path6_fill" transform="translate(575.987 2199.51)" fill="#FFFFFF"/>
<use xlink:href="#path7_fill" transform="translate(575.987 2199.51)" fill="#FFFFFF"/>
<use xlink:href="#path8_fill" transform="translate(575.987 2199.51)" fill="#FFFFFF"/>
<use xlink:href="#path9_fill" transform="translate(575.987 2199.51)" fill="#FFFFFF"/>
<use xlink:href="#path10_fill" transform="translate(575.987 2199.51)" fill="#FFFFFF"/>
<use xlink:href="#path11_fill" transform="translate(575.987 2199.51)" fill="#FFFFFF"/>
</g>
<g id="Vector">
<use xlink:href="#path12_fill" transform="translate(587.094 2137.24)" fill="#FFFFFF"/>
<use xlink:href="#path13_fill" transform="translate(587.094 2137.24)" fill="#FFFFFF"/>
<use xlink:href="#path14_fill" transform="translate(587.094 2137.24)" fill="#FFFFFF"/>
<use xlink:href="#path15_fill" transform="translate(587.094 2137.24)" fill="#FFFFFF"/>
<use xlink:href="#path16_fill" transform="translate(587.094 2137.24)" fill="#FFFFFF"/>
<use xlink:href="#path17_fill" transform="translate(587.094 2137.24)" fill="#FFFFFF"/>
</g>
</g>
</g>
<defs>
<path id="path0_fill" d="M 50 0C 22.3858 0 0 22.3858 0 50C 0 77.6142 22.3858 100 50 100C 77.6142 100 100 77.6142 100 50C 100 22.3858 77.6142 0 50 0Z"/>
<path id="path1_fill" d="M 2.6846 0.0158851C 3.37296 0.0158851 3.94483 0.190622 4.4002 0.540097C 4.85558 0.889571 5.16269 1.36348 5.32154 1.96182L 4.36049 1.96182C 4.22811 1.62294 4.01631 1.35554 3.72508 1.15962C 3.43915 0.958407 3.08702 0.857801 2.66871 0.857801C 2.33512 0.857801 2.03595 0.939874 1.7712 1.10402C 1.51174 1.26817 1.30523 1.5038 1.15168 1.81091C 1.00342 2.11273 0.929284 2.4675 0.929284 2.87522C 0.929284 3.27765 1.00342 3.63242 1.15168 3.93953C 1.30523 4.24135 1.51174 4.47433 1.7712 4.63848C 2.03595 4.80263 2.33512 4.8847 2.66871 4.8847C 3.08702 4.8847 3.43915 4.78674 3.72508 4.59082C 4.01631 4.38961 4.22811 4.12221 4.36049 3.78862L 5.32154 3.78862C 5.16269 4.38696 4.85558 4.86087 4.4002 5.21035C 3.94483 5.55453 3.37296 5.72662 2.6846 5.72662C 2.15509 5.72662 1.68648 5.60748 1.27876 5.3692C 0.871039 5.12563 0.555982 4.78939 0.333589 4.36049C 0.111196 3.92629 0 3.4312 0 2.87522C 0 2.31924 0.111196 1.8268 0.333589 1.3979C 0.555982 0.963702 0.871039 0.624818 1.27876 0.381245C 1.68648 0.137672 2.15509 0.0158851 2.6846 0.0158851Z"/>
<path id="path2_fill" d="M 8.82218 0C 9.3411 0 9.80971 0.121787 10.228 0.36536C 10.6516 0.608933 10.9826 0.950464 11.2208 1.38996C 11.4644 1.82415 11.5862 2.31659 11.5862 2.86728C 11.5862 3.41797 11.4644 3.91306 11.2208 4.35255C 10.9826 4.78674 10.6516 5.12827 10.228 5.37714C 9.80971 5.62071 9.3411 5.7425 8.82218 5.7425C 8.29797 5.7425 7.82406 5.62071 7.40046 5.37714C 6.98215 5.12827 6.6512 4.78674 6.40763 4.35255C 6.16406 3.91306 6.04227 3.41797 6.04227 2.86728C 6.04227 2.31659 6.16406 1.82415 6.40763 1.38996C 6.6512 0.950464 6.98215 0.608933 7.40046 0.36536C 7.82406 0.121787 8.29797 0 8.82218 0ZM 8.82218 0.841916C 8.46212 0.841916 8.14177 0.923989 7.86113 1.08814C 7.58049 1.25228 7.36074 1.48791 7.20189 1.79503C 7.04834 2.10214 6.97156 2.45956 6.97156 2.86728C 6.97156 3.275 7.04834 3.63242 7.20189 3.93953C 7.36074 4.24664 7.58049 4.48227 7.86113 4.64642C 8.14177 4.81057 8.46212 4.89264 8.82218 4.89264C 9.17695 4.89264 9.49201 4.81057 9.76735 4.64642C 10.048 4.48227 10.2651 4.24664 10.4186 3.93953C 10.5775 3.63242 10.6569 3.275 10.6569 2.86728C 10.6569 2.45956 10.5775 2.10214 10.4186 1.79503C 10.2651 1.48791 10.048 1.25228 9.76735 1.08814C 9.49201 0.923989 9.17695 0.841916 8.82218 0.841916Z"/>
<path id="path3_fill" d="M 17.0351 5.67896L 16.1297 5.67896L 13.4054 1.54086L 13.4054 5.67896L 12.4999 5.67896L 12.4999 0.0794259L 13.4054 0.0794259L 16.1297 4.23341L 16.1297 0.0794259L 17.0351 0.0794259L 17.0351 5.67896Z"/>
<path id="path4_fill" d="M 21.737 0.0714833L 21.737 0.802203L 20.1723 0.802203L 20.1723 5.67896L 19.2589 5.67896L 19.2589 0.802203L 17.7022 0.802203L 17.7022 0.0714833L 21.737 0.0714833Z"/>
<path id="path5_fill" d="M 25.3594 5.67896L 23.9615 3.43915L 23.3181 3.43915L 23.3181 5.67896L 22.4127 5.67896L 22.4127 0.0714833L 24.3904 0.0714833C 25.0311 0.0714833 25.5156 0.227688 25.8439 0.540097C 26.1775 0.852506 26.3442 1.26552 26.3442 1.77914C 26.3442 2.21863 26.2198 2.5787 25.9709 2.85934C 25.7274 3.13997 25.3726 3.32001 24.9066 3.39943L 26.376 5.67896L 25.3594 5.67896ZM 23.3181 2.7958L 24.3189 2.7958C 25.0496 2.7958 25.415 2.4728 25.415 1.8268C 25.415 1.51968 25.3249 1.28141 25.1449 1.11196C 24.9702 0.937227 24.6948 0.849858 24.3189 0.849858L 23.3181 0.849858L 23.3181 2.7958Z"/>
<path id="path6_fill" d="M 28.0651 0.0714833L 28.0651 5.67896L 27.1596 5.67896L 27.1596 0.0714833L 28.0651 0.0714833Z"/>
<path id="path7_fill" d="M 32.0836 2.78785C 32.4225 2.85669 32.6952 3.01819 32.9017 3.27235C 33.1135 3.52651 33.2194 3.82304 33.2194 4.16192C 33.2194 4.62789 33.0632 4.99854 32.7508 5.27389C 32.4384 5.54394 31.9857 5.67896 31.3926 5.67896L 29.1608 5.67896L 29.1608 0.0714833L 31.3529 0.0714833C 31.9142 0.0714833 32.3431 0.198565 32.6396 0.452728C 32.9414 0.701596 33.0924 1.04578 33.0924 1.48527C 33.0924 1.84004 32.9997 2.12862 32.8144 2.35101C 32.629 2.56811 32.3855 2.71372 32.0836 2.78785ZM 30.0662 2.48603L 31.1861 2.48603C 31.5038 2.48603 31.7448 2.4119 31.9089 2.26364C 32.0783 2.11538 32.1631 1.90887 32.1631 1.64412C 32.1631 1.38466 32.0783 1.1808 31.9089 1.03254C 31.7448 0.884276 31.4932 0.810145 31.1544 0.810145L 30.0662 0.810145L 30.0662 2.48603ZM 31.21 4.93236C 31.5541 4.93236 31.8189 4.85558 32.0042 4.70202C 32.1948 4.54317 32.2901 4.32342 32.2901 4.04278C 32.2901 3.76215 32.1948 3.5424 32.0042 3.38355C 31.8136 3.2247 31.5462 3.14527 31.202 3.14527L 30.0662 3.14527L 30.0662 4.93236L 31.21 4.93236Z"/>
<path id="path8_fill" d="M 34.9363 0.0714833L 34.9363 3.39943C 34.9363 3.89717 35.0449 4.26782 35.262 4.5114C 35.4844 4.75497 35.7941 4.87676 36.1913 4.87676C 36.5831 4.87676 36.8876 4.75497 37.1047 4.5114C 37.3271 4.26782 37.4383 3.89717 37.4383 3.39943L 37.4383 0.0714833L 38.3437 0.0714833L 38.3437 3.39943C 38.3437 4.16722 38.1451 4.74968 37.748 5.14681C 37.3509 5.53864 36.8267 5.73456 36.1754 5.73456C 35.5294 5.73456 35.0105 5.53864 34.6186 5.14681C 34.2268 4.74968 34.0309 4.16722 34.0309 3.39943L 34.0309 0.0714833L 34.9363 0.0714833Z"/>
<path id="path9_fill" d="M 43.0052 0.0714833L 43.0052 0.802203L 41.4405 0.802203L 41.4405 5.67896L 40.5271 5.67896L 40.5271 0.802203L 38.9704 0.802203L 38.9704 0.0714833L 43.0052 0.0714833Z"/>
<path id="path10_fill" d="M 46.2781 0C 46.797 0 47.2656 0.121787 47.6839 0.36536C 48.1075 0.608933 48.4384 0.950464 48.6767 1.38996C 48.9203 1.82415 49.0421 2.31659 49.0421 2.86728C 49.0421 3.41797 48.9203 3.91306 48.6767 4.35255C 48.4384 4.78674 48.1075 5.12827 47.6839 5.37714C 47.2656 5.62071 46.797 5.7425 46.2781 5.7425C 45.7538 5.7425 45.2799 5.62071 44.8563 5.37714C 44.438 5.12827 44.1071 4.78674 43.8635 4.35255C 43.6199 3.91306 43.4982 3.41797 43.4982 2.86728C 43.4982 2.31659 43.6199 1.82415 43.8635 1.38996C 44.1071 0.950464 44.438 0.608933 44.8563 0.36536C 45.2799 0.121787 45.7538 0 46.2781 0ZM 46.2781 0.841916C 45.918 0.841916 45.5976 0.923989 45.317 1.08814C 45.0364 1.25228 44.8166 1.48791 44.6578 1.79503C 44.5042 2.10214 44.4274 2.45956 44.4274 2.86728C 44.4274 3.275 44.5042 3.63242 44.6578 3.93953C 44.8166 4.24664 45.0364 4.48227 45.317 4.64642C 45.5976 4.81057 45.918 4.89264 46.2781 4.89264C 46.6328 4.89264 46.9479 4.81057 47.2232 4.64642C 47.5039 4.48227 47.721 4.24664 47.8745 3.93953C 48.0334 3.63242 48.1128 3.275 48.1128 2.86728C 48.1128 2.45956 48.0334 2.10214 47.8745 1.79503C 47.721 1.48791 47.5039 1.25228 47.2232 1.08814C 46.9479 0.923989 46.6328 0.841916 46.2781 0.841916Z"/>
<path id="path11_fill" d="M 52.9025 5.67896L 51.5046 3.43915L 50.8613 3.43915L 50.8613 5.67896L 49.9558 5.67896L 49.9558 0.0714833L 51.9335 0.0714833C 52.5742 0.0714833 53.0587 0.227688 53.387 0.540097C 53.7206 0.852506 53.8874 1.26552 53.8874 1.77914C 53.8874 2.21863 53.763 2.5787 53.5141 2.85934C 53.2705 3.13997 52.9157 3.32001 52.4498 3.39943L 53.9192 5.67896L 52.9025 5.67896ZM 50.8613 2.7958L 51.862 2.7958C 52.5927 2.7958 52.9581 2.4728 52.9581 1.8268C 52.9581 1.51968 52.8681 1.28141 52.688 1.11196C 52.5133 0.937227 52.238 0.849858 51.862 0.849858L 50.8613 0.849858L 50.8613 2.7958Z"/>
<path id="path12_fill" d="M 0.110574 31.603L 16.4521 54.7157L 16.4521 41.1693L 0.110574 31.603Z"/>
<path id="path13_fill" d="M 0 28.1462L 16.4521 37.7818L 16.4521 20.9406L 0 28.1462Z"/>
<path id="path14_fill" d="M 0.529875 26.7556L 16.4521 19.7828L 16.4521 0.00802704L 0.529875 26.7556Z"/>
<path id="path15_fill" d="M 33.6585 26.8549L 17.5126 0L 17.5126 19.7828L 33.6585 26.8549Z"/>
<path id="path16_fill" d="M 17.5126 41.1693L 17.5126 54.7157L 33.8541 31.603L 17.5126 41.1693Z"/>
<path id="path17_fill" d="M 17.5126 20.941L 17.5126 37.7822L 33.9767 28.1516L 17.5126 20.941Z"/>
</defs>
</svg>
