<svg width="118" height="38" viewBox="0 0 118 38" version="1.1" xmlns="http://www.w3.org/2000/svg" xmlns:xlink="http://www.w3.org/1999/xlink">
<title>Motiv8 Logo</title>
<desc>Created using Figma</desc>
<g id="Canvas" transform="translate(-1064 1427)">
<clipPath id="clip-0" clip-rule="evenodd">
<path d="M 1064 -1427L 1182 -1427L 1182 -1389L 1064 -1389L 1064 -1427Z" fill="#FFFFFF"/>
</clipPath>
<g id="Motiv8 Logo" clip-path="url(#clip-0)">
<path d="M 1064 -1427L 1182 -1427L 1182 -1389L 1064 -1389L 1064 -1427Z" fill="#FFFFFF"/>
<g id="Group">
<g id="Vector">
<use xlink:href="#path0_fill" transform="translate(1129.6 -1422)" fill="#EB8554"/>
</g>
<g id="Vector">
<use xlink:href="#path1_fill" transform="translate(1160.08 -1421.38)" fill="#4FE9FF"/>
</g>
<g id="Vector">
<use xlink:href="#path2_fill" transform="translate(1064 -1414.37)" fill="#EB8554"/>
</g>
<g id="Vector">
<use xlink:href="#path3_fill" transform="translate(1093.96 -1414.37)" fill="#EB8554"/>
</g>
<g id="Vector">
<use xlink:href="#path4_fill" transform="translate(1138.63 -1413.79)" fill="#EB8554"/>
</g>
<g id="Vector">
<use xlink:href="#path5_fill" transform="translate(1113.52 -1418.21)" fill="#EB8554"/>
</g>
<g id="Vector">
<use xlink:href="#path6_fill" transform="translate(1129.78 -1413.79)" fill="#EB8554"/>
</g>
</g>
</g>
</g>
<defs>
<path id="path0_fill" d="M 5.30466 0C 7.17548 0.737188 8.00399 2.97508 7.04185 4.79172C 6.82804 5.21297 6.2668 5.66055 5.83918 5.71321C 4.39597 5.81852 2.89932 5.84485 1.45611 5.71321C 0.975042 5.66055 0.280165 5.05501 0.199987 4.60743C 0.012905 3.5543 -0.14745 2.36953 0.226715 1.42172C 0.467249 0.789845 1.61647 0.473907 2.3648 0C 3.32694 0 4.31579 0 5.30466 0Z"/>
<path id="path1_fill" d="M 3.66098 13.6808C 1.79015 12.2591 0.98837 10.4161 0.934918 8.17821C 0.85474 4.57126 2.67211 1.91211 6.1465 0.780003C 9.40707 -0.246795 12.7478 -0.273123 16.0084 0.780003C 21.3269 2.465 22.7701 8.30986 18.975 12.3644C 18.8414 12.5224 18.7077 12.6803 18.4939 12.9173C 20.7656 14.3653 21.9149 16.3399 21.9149 18.9728C 21.9416 22.922 19.9371 25.6864 16.0351 26.7132C 12.5607 27.6084 9.05963 27.6084 5.61197 26.7132C 2.91264 26.0287 0.828011 24.5543 0.213312 21.6846C -0.481565 18.5778 0.534027 16.0767 3.073 14.1547C 3.23336 13.9704 3.39372 13.8651 3.66098 13.6808ZM 10.9839 21.2896C 11.3313 21.2633 11.8659 21.2633 12.3737 21.158C 13.3358 20.921 14.1109 20.4471 14.2178 19.3677C 14.2979 18.2882 13.71 17.63 12.7478 17.3141C 11.7857 16.9981 10.8235 16.7085 9.83469 16.4453C 9.56742 16.3663 9.21999 16.3663 8.97946 16.4979C 7.91042 17.0245 7.18881 18.4989 7.45607 19.5783C 7.77678 20.7894 8.76565 21.1053 9.88814 21.237C 10.1821 21.2633 10.5028 21.2633 10.9839 21.2896ZM 11.0641 6.12462C 9.46052 6.12462 8.57856 6.65118 8.41821 7.73064C 8.23113 9.15236 9.13981 9.9422 11.465 10.4951C 12.8815 10.811 13.2556 9.78423 13.5763 8.88907C 14.2178 7.2304 13.1754 6.15095 11.0641 6.12462Z"/>
<path id="path2_fill" d="M 17.2158 6.47904C 17.2158 10.323 17.2158 14.0879 17.2158 17.8791C 17.2158 19.5641 17.0288 19.7484 15.2648 19.7484C 14.1958 19.7484 13.1268 19.7484 12.0577 19.7484C 10.5611 19.7221 10.2671 19.4588 10.2671 17.9581C 10.2403 14.9304 10.2671 11.9026 10.2671 8.8749C 10.2671 6.42638 9.54547 5.87349 6.92632 6.47904C 6.92632 8.08506 6.92632 9.74373 6.92632 11.4024C 6.92632 13.6403 6.89959 15.8782 6.92632 18.1161C 6.92632 19.2745 6.41853 19.8011 5.21585 19.7484C 3.95973 19.6958 2.73033 19.7221 1.47421 19.7484C 0.538797 19.7484 0.00427617 19.3798 0.00427617 18.353C 0.00427617 13.3507 -0.0224499 8.34834 0.0577282 3.34599C 0.0577282 2.74044 0.699153 1.81896 1.28713 1.582C 5.10895 0.0286423 9.03768 -0.603233 13.1 0.713175C 13.5544 0.871143 14.1156 0.792159 14.6234 0.739502C 16.4141 0.528877 18.2314 0.0812984 20.0221 0.0812984C 24.7259 0.107627 27.3985 2.68779 27.5588 7.32154C 27.6925 10.9548 27.5856 14.6144 27.6123 18.2477C 27.6123 19.3009 27.1312 19.7748 26.0622 19.7484C 24.7793 19.7221 23.4697 19.7221 22.1869 19.7484C 21.0377 19.7748 20.6101 19.2219 20.6101 18.1424C 20.6368 15.062 20.6101 12.008 20.6101 8.92756C 20.6101 6.40006 19.9152 5.87349 17.2158 6.47904Z"/>
<path id="path3_fill" d="M 18.5513 10.168C 18.5513 11.0895 18.6048 12.011 18.5513 12.9325C 18.3643 16.6184 16.3331 19.2512 12.6716 19.8831C 10.5335 20.2517 8.23509 20.2517 6.07028 19.8831C 2.62263 19.3039 0.56472 17.066 0.190556 13.6433C -0.0767049 11.3528 -0.0499788 8.98324 0.190556 6.69269C 0.511268 3.45433 2.48899 1.37441 5.69612 0.505578C 8.342 -0.205282 10.9879 -0.178954 13.5803 0.663547C 16.6271 1.69034 18.2841 3.84925 18.5513 6.9823C 18.6048 8.06176 18.5513 9.11488 18.5513 10.168ZM 7.0057 10.0627C 7.0057 10.7999 6.97897 11.5371 7.0057 12.3006C 7.05915 13.7486 7.7273 14.3542 9.30413 14.4068C 10.8008 14.4595 11.6026 13.775 11.656 12.3796C 11.7095 10.9842 11.7095 9.58879 11.656 8.1934C 11.6293 6.58738 10.881 5.92918 9.22396 5.98183C 7.64712 6.03449 7.00569 6.66637 6.97897 8.27238C 6.97897 8.82528 6.97897 9.43082 7.0057 10.0627Z"/>
<path id="path4_fill" d="M 10.0465 11.5649C 10.7681 8.80043 11.7035 5.35144 12.5587 1.87612C 12.8795 0.533388 13.5743 -0.0721592 14.9641 0.00682532C 16.2469 0.0594816 17.5565 0.00682492 18.8394 0.0331531C 19.855 0.0331531 20.336 0.454404 19.9351 1.53386C 17.9307 7.01011 15.953 12.4864 13.8683 17.9363C 13.6545 18.4892 12.826 19.0947 12.2113 19.1474C 10.7146 19.3317 9.16454 19.3317 7.69461 19.1474C 7.05318 19.0684 6.17122 18.4365 5.95741 17.8573C 3.95296 12.4337 2.05542 6.95746 0.13114 1.50753C -0.216298 0.559717 0.131135 0.0594812 1.12 0.0331531C 2.58993 0.00682492 4.05986 0.0331531 5.5298 0.0331531C 6.65229 0.0331531 7.16009 0.744013 7.42735 1.74448C 8.33603 5.2198 9.29817 8.72144 10.0465 11.5649Z"/>
<path id="path5_fill" d="M 3.02443 10.1374C -0.0223427 9.76884 -0.0223437 9.76884 0.00438233 6.34618C 0.00438233 4.60852 0.00438316 4.60852 3.02443 4.31891C 3.02443 3.45008 3.02443 2.5286 3.02443 1.63344C 3.02443 0.580313 3.45204 -0.0252346 4.60126 0.00109354C 5.88411 0.0274217 7.19369 0.0274217 8.47654 0.00109354C 9.51885 -0.0252346 10.0534 0.422344 9.99992 1.5018C 9.97319 2.42328 9.99992 3.31844 9.99992 4.42422C 10.9621 4.42422 11.7906 4.42422 12.6191 4.42422C 13.5545 4.42422 13.9554 4.8718 14.0356 5.79329C 14.3295 9.66353 14.3563 9.66353 10.187 10.1111C 10.187 12.27 10.1068 14.4553 10.2137 16.6142C 10.2672 17.7199 11.2828 18.0885 12.2716 18.0359C 13.6347 17.9569 14.089 18.5888 14.0356 19.8525C 13.9821 20.853 14.0088 21.8798 14.0088 22.8803C 13.9821 23.7228 13.5545 24.223 12.6725 24.144C 10.9621 23.986 9.19814 23.9334 7.54112 23.4858C 4.81507 22.775 3.47877 20.7214 3.23823 18.0622C 3.05115 16.0086 3.07788 13.955 3.05115 11.9014C 2.9977 11.2959 3.02443 10.743 3.02443 10.1374Z"/>
<path id="path6_fill" d="M 6.94877 9.55798C 6.94877 12.1381 6.94877 14.7183 6.94877 17.3248C 6.94877 18.9045 6.65479 19.1414 5.07795 19.1678C 3.87528 19.1678 2.67261 19.1678 1.46993 19.1678C 0.48107 19.1678 1.63123e-06 18.7465 1.63123e-06 17.746C 1.63123e-06 12.3224 1.63123e-06 6.87251 1.63123e-06 1.44891C 1.63123e-06 0.448438 0.481069 0.000858998 1.44321 0.000858998C 2.72606 0.000858998 4.03563 0.0271872 5.31848 0.000858998C 6.52115 -0.0254692 6.9755 0.55375 6.94877 1.71219C 6.92205 4.31868 6.94877 6.95149 6.94877 9.55798Z"/>
</defs>
</svg>
