<svg width="99" height="25" viewBox="0 0 99 25" version="1.1" xmlns="http://www.w3.org/2000/svg" xmlns:xlink="http://www.w3.org/1999/xlink">
<title>logo</title>
<desc>Created using Figma</desc>
<g id="Canvas" transform="translate(-452 -1722)">
<rect x="452" y="1722" width="99" height="25" fill="#E5E5E5"/>
<clipPath id="clip-0" clip-rule="evenodd">
<path d="M 431 1698L 1455 1698L 1455 2466L 431 2466L 431 1698Z" fill="#FFFFFF"/>
</clipPath>
<g id="User : Profile" clip-path="url(#clip-0)">
<path d="M 431 1698L 1455 1698L 1455 2466L 431 2466L 431 1698Z" fill="#FAFAFA"/>
<g id="Navigation: User Auth">
<g id="Group">
<g id="Rectangle 2">
<use xlink:href="#path0_fill" transform="translate(431 1698)" fill="#FFFFFF"/>
</g>
<g id="logo">
<use xlink:href="#path1_fill" transform="translate(451 1716)" fill="#3D3C55"/>
<use xlink:href="#path2_fill" transform="translate(451 1716)" fill="#F1415F"/>
</g>
</g>
</g>
</g>
</g>
<defs>
<path id="path0_fill" d="M 0 0L 1024 0L 1024 74L 0 74L 0 0Z"/>
<path id="path1_fill" d="M 6.45312 13.0938L 6.625 15.0781C 7.82292 13.5469 9.43229 12.7812 11.4531 12.7812C 13.5885 12.7812 15.0312 13.6302 15.7812 15.3281C 16.9271 13.6302 18.5833 12.7812 20.75 12.7812C 24.1771 12.7812 25.9375 14.8542 26.0312 19L 26.0312 30L 20.75 30L 20.75 19.3281C 20.75 18.4635 20.6042 17.8333 20.3125 17.4375C 20.0208 17.0417 19.4896 16.8438 18.7188 16.8438C 17.6771 16.8438 16.901 17.3073 16.3906 18.2344L 16.4062 18.4531L 16.4062 30L 11.125 30L 11.125 19.3594C 11.125 18.474 10.9844 17.8333 10.7031 17.4375C 10.4219 17.0417 9.88542 16.8438 9.09375 16.8438C 8.08333 16.8438 7.3125 17.3073 6.78125 18.2344L 6.78125 30L 1.51562 30L 1.51562 13.0938L 6.45312 13.0938ZM 28.375 21.3906C 28.375 19.7031 28.7031 18.2031 29.3594 16.8906C 30.0156 15.5677 30.9583 14.5521 32.1875 13.8438C 33.4167 13.1354 34.8594 12.7812 36.5156 12.7812C 39.0469 12.7812 41.0417 13.5677 42.5 15.1406C 43.9583 16.7031 44.6875 18.8333 44.6875 21.5312L 44.6875 21.7188C 44.6875 24.3542 43.9531 26.4479 42.4844 28C 41.026 29.5417 39.0469 30.3125 36.5469 30.3125C 34.1406 30.3125 32.2083 29.5938 30.75 28.1562C 29.2917 26.7083 28.5052 24.75 28.3906 22.2812L 28.375 21.3906ZM 33.6406 21.7188C 33.6406 23.2812 33.8854 24.4271 34.375 25.1562C 34.8646 25.8854 35.5885 26.25 36.5469 26.25C 38.4219 26.25 39.3802 24.8073 39.4219 21.9219L 39.4219 21.3906C 39.4219 18.3594 38.4531 16.8438 36.5156 16.8438C 34.7552 16.8438 33.8021 18.151 33.6562 20.7656L 33.6406 21.7188ZM 53.1406 8.89062L 53.1406 13.0938L 55.9219 13.0938L 55.9219 16.75L 53.1406 16.75L 53.1406 24.4844C 53.1406 25.1198 53.2552 25.5625 53.4844 25.8125C 53.7135 26.0625 54.1667 26.1875 54.8438 26.1875C 55.3646 26.1875 55.8021 26.1562 56.1562 26.0938L 56.1562 29.8594C 55.2083 30.1615 54.2188 30.3125 53.1875 30.3125C 51.375 30.3125 50.0365 29.8854 49.1719 29.0312C 48.3073 28.1771 47.875 26.8802 47.875 25.1406L 47.875 16.75L 45.7188 16.75L 45.7188 13.0938L 47.875 13.0938L 47.875 8.89062L 53.1406 8.89062ZM 63.5625 30L 58.2812 30L 58.2812 13.0938L 63.5625 13.0938L 63.5625 30ZM 57.9688 8.73438C 57.9688 7.98438 58.2396 7.36979 58.7812 6.89062C 59.3229 6.41146 60.026 6.17188 60.8906 6.17188C 61.7552 6.17188 62.4583 6.41146 63 6.89062C 63.5417 7.36979 63.8125 7.98438 63.8125 8.73438C 63.8125 9.48438 63.5417 10.099 63 10.5781C 62.4583 11.0573 61.7552 11.2969 60.8906 11.2969C 60.026 11.2969 59.3229 11.0573 58.7812 10.5781C 58.2396 10.099 57.9688 9.48438 57.9688 8.73438ZM 73.5625 23.7344L 76.2344 13.0938L 81.7812 13.0938L 76.2656 30L 70.8906 30L 65.375 13.0938L 70.9375 13.0938L 73.5625 23.7344Z"/>
<path id="path2_fill" d="M 98.6094 13.3281C 98.6094 14.4323 98.3333 15.4062 97.7812 16.25C 97.2396 17.0938 96.4896 17.7708 95.5312 18.2812C 96.6146 18.8125 97.474 19.5417 98.1094 20.4688C 98.7448 21.3854 99.0625 22.474 99.0625 23.7344C 99.0625 25.7656 98.3594 27.3698 96.9531 28.5469C 95.5573 29.724 93.6302 30.3125 91.1719 30.3125C 88.7031 30.3125 86.7552 29.724 85.3281 28.5469C 83.901 27.3594 83.1875 25.7552 83.1875 23.7344C 83.1875 22.5156 83.5 21.4375 84.125 20.5C 84.75 19.5625 85.6354 18.8229 86.7812 18.2812C 85.8125 17.7708 85.0521 17.0938 84.5 16.25C 83.9479 15.4062 83.6719 14.4323 83.6719 13.3281C 83.6719 11.349 84.3438 9.78646 85.6875 8.64062C 87.0312 7.49479 88.8438 6.92188 91.125 6.92188C 93.4271 6.92188 95.25 7.49479 96.5938 8.64062C 97.9375 9.78646 98.6094 11.349 98.6094 13.3281ZM 93.7812 23.3125C 93.7812 22.375 93.5365 21.6562 93.0469 21.1562C 92.5677 20.6458 91.9323 20.3906 91.1406 20.3906C 90.349 20.3906 89.7083 20.6458 89.2188 21.1562C 88.7292 21.6562 88.4844 22.375 88.4844 23.3125C 88.4844 24.2188 88.7292 24.9375 89.2188 25.4688C 89.7188 25.9896 90.3698 26.25 91.1719 26.25C 91.9531 26.25 92.5833 25.9896 93.0625 25.4688C 93.5417 24.9479 93.7812 24.2292 93.7812 23.3125ZM 91.125 10.9844C 90.4167 10.9844 89.875 11.2188 89.5 11.6875C 89.1354 12.1458 88.9531 12.7865 88.9531 13.6094C 88.9531 14.4219 89.1406 15.0781 89.5156 15.5781C 89.8906 16.0781 90.4427 16.3281 91.1719 16.3281C 91.8906 16.3281 92.4271 16.0781 92.7812 15.5781C 93.1458 15.0781 93.3281 14.4219 93.3281 13.6094C 93.3281 12.7969 93.1406 12.1562 92.7656 11.6875C 92.401 11.2188 91.8542 10.9844 91.125 10.9844Z"/>
</defs>
</svg>
