<svg width="141" height="47" viewBox="0 0 141 47" version="1.1" xmlns="http://www.w3.org/2000/svg" xmlns:xlink="http://www.w3.org/1999/xlink">
<title>motiv8 logo</title>
<desc>Created using Figma</desc>
<g id="Canvas" transform="translate(-478 -1711)">
<g id="motiv8 logo">
<g id="Vector">
<use xlink:href="#path0_fill" transform="translate(555.167 1720)" fill="#FD7E56"/>
</g>
<g id="Vector">
<use xlink:href="#path1_fill" transform="translate(586.374 1720.66)" fill="#2EDEEB"/>
</g>
<g id="Vector">
<use xlink:href="#path2_fill" transform="translate(488 1728.18)" fill="#FD7E56"/>
</g>
<g id="Vector">
<use xlink:href="#path3_fill" transform="translate(518.674 1728.17)" fill="#FD7E56"/>
</g>
<g id="Vector">
<use xlink:href="#path4_fill" transform="translate(564.404 1728.79)" fill="#FD7E56"/>
</g>
<g id="Vector">
<use xlink:href="#path5_fill" transform="translate(538.703 1724.06)" fill="#FD7E56"/>
</g>
<g id="Vector">
<use xlink:href="#path6_fill" transform="translate(555.344 1728.8)" fill="#FD7E56"/>
</g>
</g>
</g>
<defs>
<path id="path0_fill" d="M 5.43102 0C 7.3464 0.789845 8.19465 3.18759 7.20959 5.13399C 6.99069 5.58533 6.41607 6.06488 5.97827 6.1213C 4.50069 6.23413 2.96838 6.26234 1.4908 6.1213C 0.998268 6.06488 0.286839 5.41608 0.204751 4.93653C 0.0132124 3.80818 -0.150962 2.53879 0.232115 1.52327C 0.478379 0.846262 1.65497 0.507757 2.42113 0C 3.40618 0 4.4186 0 5.43102 0Z"/>
<path id="path1_fill" d="M 3.74818 14.658C 1.8328 13.1347 1.01191 11.1601 0.957188 8.76237C 0.8751 4.89778 2.73576 2.04869 6.29291 0.835717C 9.63115 -0.264423 13.0515 -0.292632 16.3897 0.835717C 21.8349 2.64108 23.3125 8.90342 19.427 13.2476C 19.2902 13.4168 19.1534 13.5861 18.9345 13.8399C 21.2603 15.3914 22.4369 17.5071 22.4369 20.328C 22.4642 24.5593 20.412 27.5212 16.4171 28.6213C 12.8599 29.5804 9.27544 29.5804 5.74565 28.6213C 2.98203 27.8879 0.847734 26.3082 0.218393 23.2335C -0.493036 19.9048 0.546748 17.225 3.1462 15.1658C 3.31038 14.9683 3.47456 14.8555 3.74818 14.658ZM 11.2456 22.8103C 11.6013 22.7821 12.1485 22.7821 12.6684 22.6693C 13.6535 22.4154 14.447 21.9076 14.5564 20.7511C 14.6385 19.5945 14.0365 18.8893 13.0515 18.5508C 12.0664 18.2123 11.0814 17.902 10.069 17.6199C 9.79533 17.5353 9.43962 17.5353 9.19335 17.6763C 8.09885 18.2405 7.36005 19.8202 7.63368 20.9768C 7.96203 22.2744 8.97445 22.6129 10.1237 22.7539C 10.4247 22.7821 10.753 22.7821 11.2456 22.8103ZM 11.3276 6.56209C 9.68588 6.56209 8.78291 7.12627 8.61873 8.28282C 8.4272 9.8061 9.35752 10.6524 11.7381 11.2447C 13.1883 11.5832 13.5714 10.4831 13.8997 9.52401C 14.5564 7.74686 13.4893 6.5903 11.3276 6.56209Z"/>
<path id="path2_fill" d="M 17.6259 6.94183C 17.6259 11.0603 17.6259 15.0942 17.6259 19.1562C 17.6259 20.9616 17.4344 21.159 15.6285 21.159C 14.534 21.159 13.4394 21.159 12.3449 21.159C 10.8126 21.1308 10.5116 20.8487 10.5116 19.2408C 10.4843 15.9968 10.5116 12.7528 10.5116 9.50882C 10.5116 6.88541 9.77285 6.29303 7.09131 6.94183C 7.09131 8.66256 7.09131 10.4397 7.09131 12.2169C 7.09131 14.6146 7.06395 17.0124 7.09131 19.4101C 7.09131 20.6513 6.57142 21.2155 5.3401 21.159C 4.05405 21.1026 2.79537 21.1308 1.50932 21.159C 0.551631 21.159 0.00437803 20.7641 0.00437803 19.664C 0.00437803 14.3043 -0.0229846 8.94465 0.0591034 3.58499C 0.0591034 2.93619 0.715807 1.94888 1.31779 1.695C 5.23065 0.0306881 9.25296 -0.646321 13.4121 0.764116C 13.8773 0.933368 14.4519 0.848741 14.9718 0.792324C 16.8051 0.566654 18.6657 0.0871054 20.499 0.0871054C 25.3148 0.115314 28.0511 2.87977 28.2153 7.84451C 28.3521 11.7373 28.2427 15.6583 28.27 19.5511C 28.27 20.6795 27.7775 21.1872 26.683 21.159C 25.3696 21.1308 24.0288 21.1308 22.7154 21.159C 21.5388 21.1872 21.101 20.5949 21.101 19.4383C 21.1284 16.1379 21.101 12.8657 21.101 9.56524C 21.101 6.8572 20.3896 6.29303 17.6259 6.94183Z"/>
<path id="path3_fill" d="M 18.9932 10.8943C 18.9932 11.8816 19.048 12.8689 18.9932 13.8562C 18.8017 17.8054 16.7221 20.6263 12.9735 21.3033C 10.7844 21.6982 8.43126 21.6982 6.21488 21.3033C 2.6851 20.6827 0.578172 18.285 0.195095 14.6179C -0.078532 12.1637 -0.0511693 9.6249 0.195095 7.17074C 0.523447 3.70107 2.54828 1.47258 5.8318 0.541691C 8.5407 -0.219945 11.2496 -0.191737 13.9038 0.710943C 17.0231 1.81108 18.7196 4.1242 18.9932 7.48104C 19.048 8.6376 18.9932 9.76595 18.9932 10.8943ZM 7.17257 10.7815C 7.17257 11.5713 7.14521 12.3612 7.17257 13.1792C 7.2273 14.7307 7.91136 15.3795 9.52576 15.4359C 11.0581 15.4923 11.879 14.7589 11.9337 13.2638C 11.9884 11.7688 11.9884 10.2737 11.9337 8.77864C 11.9063 7.05791 11.1402 6.35269 9.44368 6.40911C 7.82928 6.46553 7.17257 7.14254 7.14521 8.86327C 7.14521 9.45565 7.14521 10.1045 7.17257 10.7815Z"/>
<path id="path4_fill" d="M 10.2858 12.3909C 11.0246 9.42903 11.9823 5.73369 12.8579 2.01013C 13.1863 0.571487 13.8977 -0.0773134 15.3205 0.00731284C 16.634 0.0637303 17.9747 0.00731241 19.2881 0.0355211C 20.3279 0.0355211 20.8204 0.486861 20.41 1.64342C 18.3578 7.51084 16.333 13.3783 14.1987 19.2175C 13.9798 19.8098 13.1315 20.4586 12.5022 20.5151C 10.9699 20.7125 9.38284 20.7125 7.87789 20.5151C 7.22119 20.4304 6.31822 19.7534 6.09932 19.1328C 4.04712 13.3218 2.10438 7.45442 0.134264 1.61521C -0.221451 0.599697 0.134259 0.0637299 1.14668 0.0355211C 2.65162 0.00731241 4.15657 0.0355211 5.66152 0.0355211C 6.81075 0.0355211 7.33064 0.797157 7.60427 1.86909C 8.5346 5.59264 9.51965 9.34441 10.2858 12.3909Z"/>
<path id="path5_fill" d="M 3.09647 10.8615C -0.0228749 10.4666 -0.0228759 10.4666 0.00448672 6.79948C 0.00448672 4.9377 0.00448757 4.9377 3.09647 4.6274C 3.09647 3.69652 3.09647 2.70921 3.09647 1.75011C 3.09647 0.621764 3.53427 -0.0270371 4.71086 0.00117165C 6.02427 0.0293804 7.36504 0.0293804 8.67845 0.00117165C 9.74559 -0.0270371 10.2928 0.452512 10.2381 1.60907C 10.2108 2.59638 10.2381 3.55547 10.2381 4.74024C 11.2232 4.74024 12.0714 4.74024 12.9197 4.74024C 13.8774 4.74024 14.2878 5.21979 14.3699 6.20709C 14.6709 10.3538 14.6982 10.3538 10.4297 10.8333C 10.4297 13.1464 10.3476 15.4878 10.457 17.8009C 10.5117 18.9857 11.5515 19.3806 12.5639 19.3242C 13.9594 19.2395 14.4246 19.9165 14.3699 21.2706C 14.3152 22.3425 14.3425 23.4426 14.3425 24.5146C 14.3152 25.4172 13.8774 25.9532 12.9744 25.8686C 11.2232 25.6993 9.41724 25.6429 7.72076 25.1634C 4.92977 24.4017 3.56163 22.2015 3.31537 19.3524C 3.12383 17.1521 3.15119 14.9518 3.12383 12.7515C 3.0691 12.1027 3.09647 11.5103 3.09647 10.8615Z"/>
<path id="path6_fill" d="M 7.11429 10.2407C 7.11429 13.0051 7.11429 15.7696 7.11429 18.5623C 7.11429 20.2548 6.81331 20.5087 5.19891 20.5369C 3.96759 20.5369 2.73627 20.5369 1.50495 20.5369C 0.49253 20.5369 1.67008e-06 20.0855 1.67008e-06 19.0136C 1.67008e-06 13.2026 1.67008e-06 7.3634 1.67008e-06 1.5524C 1.67008e-06 0.480469 0.492528 0.000920355 1.47758 0.000920355C 2.79099 0.000920355 4.13176 0.0291291 5.44517 0.000920355C 6.67649 -0.0272884 7.14166 0.593304 7.11429 1.83449C 7.08693 4.62715 7.11429 7.44803 7.11429 10.2407Z"/>
</defs>
</svg>
