<svg width="400" height="400" viewBox="0 0 400 400" version="1.1" xmlns="http://www.w3.org/2000/svg" xmlns:xlink="http://www.w3.org/1999/xlink">
<title>L3 Body</title>
<desc>Created using Figma</desc>
<g id="Canvas" transform="translate(-364 -370)">
<clipPath id="clip-0" clip-rule="evenodd">
<path d="M 364 370L 764 370L 764 770L 364 770L 364 370Z" fill="#FFFFFF"/>
</clipPath>
<g id="L3 Body" clip-path="url(#clip-0)">
<g id="Group">
<g id="Group">
<g id="Vector">
<use xlink:href="#path0_fill" transform="translate(416 450.8)" fill="#C1B1A4"/>
</g>
<g id="Vector">
<use xlink:href="#path1_fill" transform="translate(462.8 493.2)" fill="#E2D6C7"/>
</g>
<g id="Vector">
<use xlink:href="#path2_fill" transform="translate(453.8 523.831)" fill="#91857D"/>
</g>
<g id="Vector">
<use xlink:href="#path3_fill" transform="translate(597.531 523.831)" fill="#91857D"/>
</g>
<g id="Vector">
<use xlink:href="#path4_fill" transform="translate(536.3 581.8)" fill="#231F20"/>
</g>
<g id="Vector">
<use xlink:href="#path5_fill" transform="translate(465.096 659.455)" fill="#91857D"/>
</g>
<g id="Vector">
<use xlink:href="#path6_fill" transform="translate(592.6 659.456)" fill="#91857D"/>
</g>
<g id="Vector">
<use xlink:href="#path7_fill" transform="translate(411 445.8)" fill="#FFFFFF"/>
</g>
</g>
<g id="Group">
<g id="Vector">
<use xlink:href="#path8_fill" transform="translate(556.3 383)" fill="#FFFFFF"/>
</g>
<g id="Vector">
<use xlink:href="#path9_fill" transform="translate(541.4 447.3)" fill="#FFFFFF"/>
</g>
<g id="Vector">
<use xlink:href="#path10_fill" transform="translate(548.4 420.2)" fill="#FFFFFF"/>
</g>
</g>
</g>
</g>
</g>
<defs>
<path id="path0_fill" d="M 296.4 318.1L 288.4 114.1C 288.4 51.2 237.2 1.52588e-06 174.3 1.52588e-06C 173.7 1.52588e-06 173.1 0.0999969 172.6 0.299997C 172.5 0.299997 162.3 4 150.4 4C 138.3 4 124.6 0.199998 124.5 0.199998C 124.1 0.0999985 123.6 1.52588e-06 123.2 1.52588e-06C 60.2 1.52588e-06 9 51.2 9 114.1L 0 318.1L 296.4 318.1Z"/>
<path id="path1_fill" d="M 137 56.3C 144 36.3 165.8 25.8 185.8 32.8L 190.6 34.5C 170.4 13.6 138.2 3.05176e-06 101.9 3.05176e-06C 65.7 3.05176e-06 33.5 13.5 13.2 34.5L 18 32.8C 38 25.8 59.8 36.3 66.8 56.3C 73.8 76.3 63.3 98.1 43.3 105.1L -7.6294e-07 120.3C 17 151.1 56.2 172.6 101.9 172.6C 147.6 172.6 186.9 151.1 203.8 120.3L 160.5 105.1C 140.5 98.1 130 76.3 137 56.3Z"/>
<path id="path2_fill" d="M 75.8 25.6688C 68.8 5.66884 47 -4.83116 27 2.16884L 22.2 3.86884C 8.3 18.2688 -7.62939e-07 36.2688 -7.62939e-07 55.6688C -7.62939e-07 67.7688 3.2 79.1688 8.9 89.6688L 52.2 74.4688C 72.3 67.4688 82.8 45.6688 75.8 25.6688Z"/>
<path id="path3_fill" d="M 55.7688 3.86884L 50.9688 2.16884C 30.9688 -4.83116 9.16884 5.66884 2.16884 25.6688C -4.83116 45.6688 5.66883 67.4688 25.6688 74.4688L 68.9688 89.6688C 74.6688 79.2688 77.8688 67.7688 77.8688 55.6688C 78.0688 36.2688 69.7688 18.2688 55.7688 3.86884Z"/>
<path id="path4_fill" d="M 28.4 27C 44.0849 27 56.8 20.9558 56.8 13.5C 56.8 6.04415 44.0849 -6.10352e-06 28.4 -6.10352e-06C 12.7151 -6.10352e-06 3.05176e-06 6.04415 3.05176e-06 13.5C 3.05176e-06 20.9558 12.7151 27 28.4 27Z"/>
<path id="path5_fill" d="M 29.3044 0.144766C 29.3044 0.144766 59.8044 30.7447 64.2044 38.2447C 68.6044 45.7447 71.6044 54.9448 71.6044 54.9448L 58.3044 44.4448L 60.6044 57.8447L 51.0044 51.6448L 56.6044 67.3447C 56.6044 67.3447 38.6044 60.8447 22.0044 48.4448C 5.40438 35.9448 -21.1956 -2.65523 29.3044 0.144766Z"/>
<path id="path6_fill" d="M 42.3 0.144416C 42.3 0.144416 11.8 30.7444 7.4 38.2444C 3 45.7444 6.10352e-06 54.9444 6.10352e-06 54.9444L 13.3 44.4444L 11 57.8444L 20.6 51.6444L 15 67.3444C 15 67.3444 33 60.8444 49.6 48.4444C 66.2 36.0444 92.8 -2.65558 42.3 0.144416Z"/>
<path id="path7_fill" d="M 306.3 324.1C 306.3 323.9 306.3 323.7 306.3 323.5L 298.3 119.1C 298.3 87.3 285.9 57.4 263.4 34.9C 240.9 12.4 211 1.52588e-06 179.2 1.52588e-06C 178 1.52588e-06 176.9 0.2 175.8 0.6C 175.5 0.7 166.1 4 155.3 4C 143.9 4 130.8 0.399999 130.7 0.399999C 129.8 0.199999 128.9 1.52588e-06 128 1.52588e-06C 96.2 1.52588e-06 66.3 12.4 43.8 34.9C 21.4 57.4 9 87.3 9 119.1L 0 323.5C 0 323.7 0 323.9 0 324.1L 306.3 324.1ZM 19 119.1C 19 58.9 67.8 10 128.1 10C 128.1 10 142.4 14 155.4 14C 168.4 14 179.3 10 179.3 10C 239.5 10 288.4 58.8 288.4 119.1L 296.4 323.5L 10 323.5L 19 119.1Z"/>
<path id="path8_fill" d="M 10.1 31.9C 14 31.9 17.6 31.7 20.9 31.5L 18.4 19.8C 18.4 19.8 15.1 1.49011e-09 12 1.49011e-09C 8.9 1.49011e-09 3.5 19.5 3.5 19.5L 3.05176e-06 31.6C 3.1 31.7 6.49999 31.9 10.1 31.9Z"/>
<path id="path9_fill" d="M 24 1.6C 18.4 1.6 11.2 0.800002 5.49999 1.52588e-06L -6.10352e-06 19C -6.10352e-06 19 -5.72205e-06 26.6 23.5 26.6C 47 26.6 47 19 47 19L 42.9 1.52588e-06C 37.1 0.800002 29.7 1.6 24 1.6Z"/>
<path id="path10_fill" d="M 6.20001 -7.62939e-07L -6.10352e-06 21.7C 4.59999 22.3 10.5 22.8 17 22.8C 23.8 22.8 29.9 22.3 34.7 21.6L 30 -7.62939e-07C 25.9 0.399999 21.6 0.799998 18 0.799998C 14.4 0.699998 10.3 0.399999 6.20001 -7.62939e-07Z"/>
</defs>
</svg>
