<svg width="400" height="400" viewBox="0 0 400 400" version="1.1" xmlns="http://www.w3.org/2000/svg" xmlns:xlink="http://www.w3.org/1999/xlink">
<title>L4 Face - 6</title>
<desc>Created using Figma</desc>
<g id="Canvas" transform="translate(-2921 -953)">
<clipPath id="clip-0" clip-rule="evenodd">
<path d="M 2921 953L 3321 953L 3321 1353L 2921 1353L 2921 953Z" fill="#FFFFFF"/>
</clipPath>
<g id="L4 Face - 6" clip-path="url(#clip-0)">
<g id="Group">
<g id="Vector">
<use xlink:href="#path0_fill" transform="translate(3038 1132)" fill="#231F20"/>
</g>
<g id="Vector">
<use xlink:href="#path1_fill" transform="translate(3038 1132)" fill="#231F20"/>
</g>
<g id="Vector">
<use xlink:href="#path2_fill" transform="translate(3172.2 1132)" fill="#231F20"/>
</g>
<g id="Vector">
<use xlink:href="#path3_fill" transform="translate(3172.2 1132)" fill="#231F20"/>
</g>
<g id="Vector">
<use xlink:href="#path4_fill" transform="translate(3082.32 1208.03)" fill="#9E0017"/>
</g>
<g id="Vector">
<use xlink:href="#path5_fill" transform="translate(3121.02 1208.12)" fill="#ED1E79"/>
</g>
</g>
</g>
</g>
<defs>
<path id="path0_fill" d="M 0.825 31.125C -0.275 30.025 -0.275 28.325 0.825 27.225L 27.225 0.825C 28.325 -0.275 30.025 -0.275 31.125 0.825C 32.225 1.925 32.225 3.625 31.125 4.725L 4.725 31.125C 3.625 32.225 1.925 32.225 0.825 31.125Z"/>
<path id="path1_fill" d="M 31.125 31.125C 30.025 32.225 28.325 32.225 27.225 31.125L 0.825 4.725C -0.275 3.625 -0.275 1.925 0.825 0.825C 1.925 -0.275 3.625 -0.275 4.725 0.825L 31.125 27.225C 32.225 28.325 32.225 30.025 31.125 31.125Z"/>
<path id="path2_fill" d="M 0.825 31.125C -0.275 30.025 -0.275 28.325 0.825 27.225L 27.225 0.825C 28.325 -0.275 30.025 -0.275 31.125 0.825C 32.225 1.925 32.225 3.625 31.125 4.725L 4.72499 31.125C 3.62499 32.225 1.925 32.225 0.825 31.125Z"/>
<path id="path3_fill" d="M 31.125 31.125C 30.025 32.225 28.325 32.225 27.225 31.125L 0.825 4.725C -0.275 3.625 -0.275 1.925 0.825 0.825C 1.925 -0.275 3.62499 -0.275 4.72499 0.825L 31.125 27.225C 32.225 28.325 32.225 30.025 31.125 31.125Z"/>
<path id="path4_fill" d="M 71.2 9.8L 4.9 9.8C 2.2 9.8 -7.62939e-07 7.6 -7.62939e-07 4.9C -7.62939e-07 2.2 2.2 1.42109e-14 4.9 1.42109e-14L 71.2 1.42109e-14C 73.9 1.42109e-14 76.1 2.2 76.1 4.9C 76.1 7.7 73.9 9.8 71.2 9.8Z"/>
<path id="path5_fill" d="M 19.2 36.9L 13 36.9C 5.8 36.9 0 31.1 0 23.9L 0 -1.52588e-06L 32.1 -1.52588e-06L 32.1 23.9C 32.2 31.1 26.3 36.9 19.2 36.9Z"/>
</defs>
</svg>
