<svg width="400" height="400" viewBox="0 0 400 400" version="1.1" xmlns="http://www.w3.org/2000/svg" xmlns:xlink="http://www.w3.org/1999/xlink">
<title>L4 Face - 3</title>
<desc>Created using Figma</desc>
<g id="Canvas" transform="translate(-1460 -953)">
<clipPath id="clip-0" clip-rule="evenodd">
<path d="M 1460 953L 1860 953L 1860 1353L 1460 1353L 1460 953Z" fill="#FFFFFF"/>
</clipPath>
<g id="L4 Face - 3" clip-path="url(#clip-0)">
<g id="Group">
<g id="Vector">
<use xlink:href="#path0_fill" transform="translate(1582 1127.57)" fill="#231F20"/>
</g>
<g id="Vector">
<use xlink:href="#path1_fill" transform="translate(1707.2 1127.57)" fill="#231F20"/>
</g>
<g id="Group">
<g id="Vector">
<use xlink:href="#path2_fill" transform="translate(1615.03 1105)" fill="#231F20"/>
</g>
</g>
<g id="Group">
<g id="Vector">
<use xlink:href="#path3_fill" transform="translate(1677.83 1105)" fill="#231F20"/>
</g>
</g>
</g>
<g id="Group">
<g id="Vector">
<use xlink:href="#path4_fill" transform="translate(1632 1214)" fill="#B5000D"/>
</g>
</g>
</g>
</g>
<defs>
<path id="path0_fill" d="M 15.9 31.8C 24.6813 31.8 31.8 24.6813 31.8 15.9C 31.8 7.11867 24.6813 0 15.9 0C 7.11867 0 0 7.11867 0 15.9C 0 24.6813 7.11867 31.8 15.9 31.8Z"/>
<path id="path1_fill" d="M 15.9 31.8C 24.6813 31.8 31.8 24.6813 31.8 15.9C 31.8 7.11867 24.6813 0 15.9 0C 7.11868 0 -3.05176e-06 7.11867 -3.05176e-06 15.9C -3.05176e-06 24.6813 7.11868 31.8 15.9 31.8Z"/>
<path id="path2_fill" d="M 26.9748 25.0748C 26.4748 25.0748 25.8748 24.8748 25.3748 24.4748L 0.874753 4.37475C -0.125247 3.47475 -0.32525 1.97475 0.57475 0.874751C 1.47475 -0.125249 2.97475 -0.325249 4.07475 0.574751L 28.6748 20.6748C 29.6748 21.5748 29.8748 23.0748 28.9748 24.1748C 28.3748 24.6748 27.6748 25.0748 26.9748 25.0748Z"/>
<path id="path3_fill" d="M 2.47475 25.0748C 1.77475 25.0748 1.07475 24.7748 0.574753 24.1748C -0.325247 23.1748 -0.125252 21.5748 0.874748 20.6748L 25.4748 0.574751C 26.4748 -0.325249 28.0748 -0.125249 28.9748 0.874751C 29.8748 1.87475 29.6748 3.47475 28.6748 4.37475L 3.97475 24.4748C 3.57475 24.8748 2.97475 25.0748 2.47475 25.0748Z"/>
<path id="path4_fill" d="M 29.4199 0C 33.6199 0 37.4199 0.5 40.6199 1.1C 50.6199 3.1 56.8199 7.2 57.0199 7.4C 58.2199 8.2 58.5199 9.7 57.7199 10.9C 56.9199 12.1 55.4199 12.4 54.2199 11.6C 54.1199 11.5 48.4199 7.8 39.3199 6C 27.3199 3.6 15.3199 5.5 3.71995 11.7C 2.51995 12.4 0.919947 11.9 0.319947 10.7C -0.380053 9.5 0.119947 7.9 1.31995 7.3C 11.7199 1.7 21.4199 0 29.4199 0Z"/>
</defs>
</svg>
