<svg width="400" height="400" viewBox="0 0 400 400" version="1.1" xmlns="http://www.w3.org/2000/svg" xmlns:xlink="http://www.w3.org/1999/xlink">
<title>L4 Face - 4</title>
<desc>Created using Figma</desc>
<g id="Canvas" transform="translate(-1946 -953)">
<clipPath id="clip-0" clip-rule="evenodd">
<path d="M 1946 953L 2346 953L 2346 1353L 1946 1353L 1946 953Z" fill="#FFFFFF"/>
</clipPath>
<g id="L4 Face - 4" clip-path="url(#clip-0)">
<g id="Group">
<g id="Vector">
<use xlink:href="#path0_fill" transform="translate(2078.63 1193.17)" fill="#B5000D"/>
</g>
<g id="Vector">
<use xlink:href="#path1_fill" transform="translate(2087.6 1193.74)" fill="#FFFFFF"/>
</g>
<g id="Vector">
<use xlink:href="#path2_fill" transform="translate(2067 1137.34)" fill="#231F20"/>
</g>
<g id="Vector">
<use xlink:href="#path3_fill" transform="translate(2192.3 1137.34)" fill="#231F20"/>
</g>
<g id="Group">
<g id="Vector">
<use xlink:href="#path4_fill" transform="translate(2194 1103.1)" fill="#231F20"/>
</g>
<g id="Vector">
<use xlink:href="#path5_fill" transform="translate(2069.39 1103)" fill="#231F20"/>
</g>
</g>
</g>
</g>
</g>
<defs>
<path id="path0_fill" d="M 127.465 0.0691924C 126.465 0.269192 125.265 0.369192 124.065 0.569192C 123.165 5.36919 121.165 11.3692 116.765 14.5692C 108.665 20.4692 66.6652 22.4692 66.6652 22.4692C 66.6652 22.4692 24.6652 20.4692 16.5652 14.5692C 12.1652 11.3692 10.1652 5.36919 9.26524 0.569192C 7.96524 0.369192 6.86524 0.169192 5.86524 0.0691924C 2.16524 -0.530808 -0.734763 2.86919 0.165237 6.46919C 2.66524 15.8692 8.56524 23.7692 15.8652 30.2692C 44.6652 56.2692 88.8652 56.2692 117.665 30.2692C 124.965 23.6692 130.765 15.7692 133.365 6.46919C 134.065 2.86919 131.165 -0.530808 127.465 0.0691924Z"/>
<path id="path1_fill" d="M 7.5 14C 15.6 19.9 57.6 21.9 57.6 21.9C 57.6 21.9 99.6 19.9 107.7 14C 112.1 10.8 114.1 4.8 115 -3.05176e-06C 103.1 1.7 82.1 4.2 57.5 4.6C 32.9 4.2 11.9 1.7 3.8147e-07 -3.05176e-06C 1 4.8 3 10.8 7.5 14Z"/>
<path id="path2_fill" d="M 15.9 9.70103C 23 9.70103 29 14.401 31.1 20.801C 31.6 19.301 31.9 17.601 31.9 15.901C 31.9 7.10103 24.8 0.00102847 16 0.00102847C 7.1 -0.0989715 0 7.10103 0 15.901C 0 17.601 0.3 19.201 0.8 20.801C 2.8 14.301 8.8 9.70103 15.9 9.70103Z"/>
<path id="path3_fill" d="M 15.8 9.7C 22.9 9.7 28.9 14.4 31 20.8C 31.5 19.3 31.8 17.6 31.8 15.9C 31.8 7.1 24.7 -7.62939e-07 15.9 -7.62939e-07C 7.1 -7.62939e-07 3.05176e-06 7.1 3.05176e-06 15.9C 3.05176e-06 17.6 0.299998 19.2 0.799998 20.8C 2.7 14.3 8.70001 9.7 15.8 9.7Z"/>
<path id="path4_fill" d="M 16.9 8.13973C 23.3 11.1397 27.4 16.6397 27.4 21.5397C 28.3 20.8397 29 19.9397 29.5 18.8397C 32.1 13.3397 27.7 5.93973 19.8 2.13973C 11.8 -1.66027 3.3 -0.260273 0.699997 5.23973C 0.199997 6.33973 -1.42109e-14 7.43973 -1.42109e-14 8.53973C 3.7 5.33973 10.5 5.03973 16.9 8.13973Z"/>
<path id="path5_fill" d="M 13.3099 8.23973C 6.90992 11.2397 2.80992 16.7397 2.80992 21.6397C 1.90992 20.9397 1.20992 20.0397 0.709917 18.9397C -1.79008 13.4397 2.50992 5.93973 10.5099 2.13973C 18.5099 -1.66027 27.0099 -0.260273 29.6099 5.23973C 30.1099 6.33973 30.3099 7.43973 30.3099 8.53973C 26.6099 5.43973 19.8099 5.13973 13.3099 8.23973Z"/>
</defs>
</svg>
