<svg width="400" height="400" viewBox="0 0 400 400" version="1.1" xmlns="http://www.w3.org/2000/svg" xmlns:xlink="http://www.w3.org/1999/xlink">
<title>L4 Face - 1</title>
<desc>Created using Figma</desc>
<g id="Canvas" transform="translate(-364 -953)">
<clipPath id="clip-0" clip-rule="evenodd">
<path d="M 364 953L 764 953L 764 1353L 364 1353L 364 953Z" fill="#FFFFFF"/>
</clipPath>
<g id="L4 Face - 1" clip-path="url(#clip-0)">
<g id="Group">
<g id="Vector">
<use xlink:href="#path0_fill" transform="translate(614.21 1155)" fill="#231F20"/>
</g>
<g id="Vector">
<use xlink:href="#path1_fill" transform="translate(481 1155.1)" fill="#231F20"/>
</g>
<g id="Vector">
<use xlink:href="#path2_fill" transform="translate(514.01 1202.89)" fill="#6DB200"/>
</g>
<g id="Group">
<g id="Vector">
<use xlink:href="#path3_fill" transform="translate(509.149 1202.02)" fill="#231F20"/>
</g>
</g>
</g>
</g>
</g>
<defs>
<path id="path0_fill" d="M 18.1 8.7702C 25 12.0702 29.3 17.8702 29.3 23.0702C 30.3 22.2702 31 21.2702 31.6 20.1702C 34.4 14.3702 29.7 6.3702 21.2 2.2702C 12.7 -1.7298 3.5 -0.329795 0.8 5.5702C 0.3 6.6702 -3.05176e-06 7.8702 -3.05176e-06 9.17021C 4 5.8702 11.3 5.5702 18.1 8.7702Z"/>
<path id="path1_fill" d="M 14.3099 8.6702C 7.4099 11.9702 3.0099 17.7702 3.1099 22.9702C 2.1099 22.1702 1.4099 21.1702 0.8099 20.0702C -1.9901 14.2702 2.7099 6.2702 11.2099 2.2702C 19.7099 -1.7298 28.9099 -0.329795 31.6099 5.5702C 32.1099 6.6702 32.4099 7.8702 32.4099 9.1702C 28.4099 5.7702 21.1099 5.4702 14.3099 8.6702Z"/>
<path id="path2_fill" d="M 75.8 1.28284C 68.5 0.382841 61 0.382844 53.6 0.0828442C 46.2 -0.117156 38.8 0.0828412 31.4 0.282841C 27.7 0.382841 24 0.682841 20.4 1.78284C 17 2.78284 13.7 3.98284 10.2 4.58284C 10.1 4.58284 10.1 4.58284 10 4.58284L 1.42109e-14 149.883L 99.5 149.883L 89.5 4.18284C 85 3.08284 80.5 1.78284 75.8 1.28284Z"/>
<path id="path3_fill" d="M 110.161 10.8532C 110.061 10.8532 109.861 10.8532 109.761 10.7532C 79.9608 1.25318 52.2608 1.75318 34.1608 3.85318C 14.5608 6.15318 1.86082 10.7532 1.76082 10.7532C 1.06082 10.9532 0.360826 10.6532 0.0608258 9.95318C -0.139174 9.25318 0.160825 8.55318 0.860825 8.25318C 0.960825 8.25318 13.9608 3.55318 33.8608 1.25318C 52.1608 -0.846819 80.3608 -1.34682 110.661 8.25318C 111.361 8.45318 111.761 9.25318 111.561 9.95318C 111.261 10.4532 110.761 10.8532 110.161 10.8532Z"/>
</defs>
</svg>
