<svg width="400" height="400" viewBox="0 0 400 400" version="1.1" xmlns="http://www.w3.org/2000/svg" xmlns:xlink="http://www.w3.org/1999/xlink">
<title>L4 Face - 8</title>
<desc>Created using Figma</desc>
<g id="Canvas" transform="translate(-3844 -953)">
<clipPath id="clip-0" clip-rule="evenodd">
<path d="M 3844 953L 4244 953L 4244 1353L 3844 1353L 3844 953Z" fill="#FFFFFF"/>
</clipPath>
<g id="L4 Face - 8" clip-path="url(#clip-0)">
<g id="Group">
<g id="Vector">
<use xlink:href="#path0_fill" transform="translate(3963 1134.37)" fill="#231F20"/>
</g>
<g id="Vector">
<use xlink:href="#path1_fill" transform="translate(4092.3 1134.37)" fill="#231F20"/>
</g>
<g id="Vector">
<use xlink:href="#path2_fill" transform="translate(4048 1201.57)" fill="#231F20"/>
</g>
<g id="Vector">
<use xlink:href="#path3_fill" transform="translate(4054.93 1049)" fill="#B5000D"/>
</g>
<g id="Vector">
<use xlink:href="#path4_fill" transform="translate(4054.96 1109.9)" fill="#B5000D"/>
</g>
</g>
</g>
</g>
<defs>
<path id="path0_fill" d="M 16.5 10.1C 23.8 10.1 30.1 14.9 32.2 21.5C 32.7 19.9 33 18.2 33 16.5C 33 7.4 25.6 3.05176e-06 16.5 3.05176e-06C 7.4 3.05176e-06 0 7.5 0 16.5C 0 18.3 0.3 19.9 0.8 21.5C 2.9 14.9 9.1 10.1 16.5 10.1Z"/>
<path id="path1_fill" d="M 16.5 10.1C 23.8 10.1 30.1 14.9 32.2 21.5C 32.7 19.9 33 18.2 33 16.5C 33 7.4 25.6 3.05176e-06 16.5 3.05176e-06C 7.4 3.05176e-06 3.05176e-06 7.4 3.05176e-06 16.5C 3.05176e-06 18.3 0.300006 19.9 0.800006 21.5C 2.90001 14.9 9.1 10.1 16.5 10.1Z"/>
<path id="path2_fill" d="M 18.6 35.9L 1.7 35.9C 0.799997 35.9 0 35.2 0 34.2C 0 33.2 0.699997 32.5 1.7 32.5L 18.6 32.5C 19.5 32.5 19.8 31.9 19.9 31.7C 20 31.5 20.3 30.8 19.7 30.1L 13.9 22.6C 12.4 20.7 12.6 18.1 14.2 16.3L 24.2 5.89999C 24.8 5.19999 24.6 4.5 24.5 4.3C 24.4 4.1 24 3.39999 23.1 3.39999L 9 3.39999C 8.1 3.39999 7.3 2.7 7.3 1.7C 7.3 0.799997 8 -2.84217e-14 9 -2.84217e-14L 23.2 -2.84217e-14C 25.2 -2.84217e-14 26.9 1.09999 27.6 2.89999C 28.4 4.69999 28 6.70001 26.7 8.10001L 16.7 18.5C 16.2 19 16.1 19.9 16.6 20.4L 22.4 27.9C 23.5 29.4 23.7 31.3 22.9 33C 22.1 34.8 20.5 35.9 18.6 35.9Z"/>
<path id="path3_fill" d="M 61.8666 19.27C 58.7666 5.87004 45.6666 4.27004 35.7666 13.07C 33.3666 15.17 29.6666 14.37 28.3666 11.47C 22.9666 -0.529964 10.3666 -4.52996 1.96661 6.37004C -5.53339 16.17 10.2666 39.27 18.3666 49.97C 20.8666 53.27 25.3666 54.27 29.0666 52.27C 40.7666 45.97 64.6666 31.37 61.8666 19.27Z"/>
<path id="path4_fill" d="M 1.83543 1.67059C 6.63543 -2.12941 11.6354 0.970591 12.6354 6.77059C 12.8354 8.17059 14.4354 8.87059 15.6354 8.27059C 20.8354 5.57059 26.3354 7.67059 26.2354 13.7706C 26.1354 19.2706 14.2354 22.9706 8.43543 24.4706C 6.63543 24.9706 4.83543 23.9706 4.13543 22.2706C 1.83543 16.7706 -2.46457 5.07059 1.83543 1.67059Z"/>
</defs>
</svg>
