<svg width="400" height="400" viewBox="0 0 400 400" version="1.1" xmlns="http://www.w3.org/2000/svg" xmlns:xlink="http://www.w3.org/1999/xlink">
<title>L4 Face - 7</title>
<desc>Created using Figma</desc>
<g id="Canvas" transform="translate(-3404 -953)">
<clipPath id="clip-0" clip-rule="evenodd">
<path d="M 3404 953L 3804 953L 3804 1353L 3404 1353L 3404 953Z" fill="#FFFFFF"/>
</clipPath>
<g id="L4 Face - 7" clip-path="url(#clip-0)">
<g id="Group">
<g id="Vector">
<use xlink:href="#path0_fill" transform="translate(3655.4 1138.3)" fill="#231F20"/>
</g>
<g id="Vector">
<use xlink:href="#path1_fill" transform="translate(3521.5 1138.3)" fill="#231F20"/>
</g>
<g id="Vector">
<use xlink:href="#path2_fill" transform="translate(3591.4 1205.3)" fill="#B5000D"/>
</g>
<g id="Vector">
<use xlink:href="#path3_fill" transform="translate(3483 1052)" fill="#231F20"/>
</g>
<g id="Vector">
<use xlink:href="#path4_fill" transform="translate(3538.3 1076.4)" fill="#231F20"/>
</g>
</g>
</g>
</g>
<defs>
<path id="path0_fill" d="M 17.1 11.9C 9.5 11.9 3 6.9 0.799997 3.05176e-06C 0.299997 1.6 -6.10352e-06 3.4 -6.10352e-06 5.2C -6.10352e-06 14.6 7.6 22.3 17.1 22.3C 26.5 22.3 34.2 14.7 34.2 5.2C 34.2 3.4 33.9 1.6 33.4 3.05176e-06C 31.2 6.9 24.7 11.9 17.1 11.9Z"/>
<path id="path1_fill" d="M 17.1 11.9C 9.5 11.9 3 6.9 0.799999 3.05176e-06C 0.299999 1.6 0 3.4 0 5.2C 0 14.6 7.6 22.3 17.1 22.3C 26.5 22.3 34.2 14.7 34.2 5.2C 34.2 3.4 33.9 1.6 33.4 3.05176e-06C 31.2 6.9 24.7 11.9 17.1 11.9Z"/>
<path id="path2_fill" d="M 14.2 28.4C 22.0424 28.4 28.4 22.0424 28.4 14.2C 28.4 6.35756 22.0424 3.05176e-06 14.2 3.05176e-06C 6.35756 3.05176e-06 0 6.35756 0 14.2C 0 22.0424 6.35756 28.4 14.2 28.4Z"/>
<path id="path3_fill" d="M 0 58L 31.4 12.8L 31.4 12.4L 2.9 12.4L 2.9 0L 50.8 0L 50.8 8.6L 20.1 53.3L 20.1 53.7L 51.3 53.7L 51.3 66L 0 66L 0 58Z"/>
<path id="path4_fill" d="M -7.62939e-07 29.2L 15.8 6.4L 15.8 6.2L 1.5 6.2L 1.5 -3.8147e-07L 25.6 -3.8147e-07L 25.6 4.3L 10.1 26.9L 10.1 27.1L 25.8 27.1L 25.8 33.3L -7.62939e-07 33.3L -7.62939e-07 29.2Z"/>
</defs>
</svg>
