<svg width="400" height="400" viewBox="0 0 400 400" version="1.1" xmlns="http://www.w3.org/2000/svg" xmlns:xlink="http://www.w3.org/1999/xlink">
<title>L2 Mask - 4</title>
<desc>Created using Figma</desc>
<g id="Canvas" transform="translate(-1784 213)">
<g id="L2 Mask - 4">
<g id="Subtract">
<use xlink:href="#path0_fill" transform="translate(1784 -213)" fill="#FFFFFF"/>
</g>
</g>
</g>
<defs>
<path id="path0_fill" fill-rule="evenodd" d="M 400 0L 0 0L 0 400L 400 400L 400 0ZM 378.288 163.342C 378.99 163.989 379.69 164.636 380.39 165.28C 390.787 174.771 391.986 187.846 383.402 199.262C 382.56 200.357 381.722 201.455 380.884 202.552C 377.531 206.943 374.177 211.333 370.567 215.556C 365.645 221.354 364.88 227.573 367.542 234.455C 368.715 237.414 369.829 240.386 370.939 243.349C 372.106 246.462 373.269 249.566 374.492 252.634C 380.141 267.107 374.841 279.735 360.573 285.946L 360.556 285.953C 354.23 288.758 347.903 291.562 341.677 294.431C 335.99 297.015 332.699 301.517 331.934 307.737C 331.575 310.525 331.23 313.322 330.885 316.122C 330.283 321.005 329.679 325.897 329.002 330.77C 327.144 343.71 316.884 352.105 303.856 351.477C 296.245 351.092 288.616 350.623 281.053 350.055C 274.555 349.608 269.549 352.135 265.917 357.487C 261.894 363.442 257.77 369.331 253.646 375.22C 245.48 386.981 232.637 389.69 220.335 382.245C 214.184 378.523 208.116 374.783 201.947 370.978C 196.281 367.499 190.615 367.31 184.702 370.461C 177.93 374.052 171.075 377.661 164.084 381.04C 152.929 386.421 140.384 382.749 133.765 372.289C 129.61 365.722 125.704 359.103 121.781 352.401C 118.281 346.475 113.121 343.756 106.378 343.793C 103.089 343.794 99.7715 343.758 96.4535 343.722C 93.1355 343.687 89.8174 343.651 86.5288 343.652C 71.2156 343.679 61.4908 334.912 60.4347 319.644C 60.0182 313.154 59.6846 306.647 59.4512 300.206C 59.139 292.569 56.1887 286.787 48.9606 283.292C 43.9528 280.887 39.1124 278.224 34.2721 275.562C 33.062 274.896 31.8518 274.23 30.639 273.569C 18.4291 266.97 14.1113 254.293 19.8075 241.495L 20.4021 240.141C 23.0032 234.216 25.5681 228.373 28.3628 222.556C 31.6141 215.812 31.2676 209.654 26.7688 203.506C 23.6234 199.261 20.6512 194.818 17.6838 190.381C 16.8846 189.187 16.0857 187.992 15.2838 186.802C 7.13696 174.847 9.02539 161.64 20.275 152.604C 25.5117 148.297 30.766 144.074 36.2383 140.064C 42.8312 135.212 44.9095 129.062 43.6814 121.186C 42.5056 113.558 41.478 105.813 41.2312 98.0762C 40.9393 86.0218 49.1271 76.4197 61.0463 74.2523C 64.3932 73.6238 67.7681 73.1275 72.34 72.4553L 74.0298 72.2066C 74.6279 72.0804 75.3629 71.9182 76.1959 71.7344C 78.2476 71.2815 80.8944 70.6974 83.559 70.197C 89.3768 69.0567 93.41 65.6098 95.6282 60.1225C 97.4849 55.5185 99.2524 50.8564 101.02 46.1943C 101.903 43.8643 102.787 41.5344 103.681 39.2118C 108.954 25.6376 120.837 20.0161 134.752 24.4378C 137.283 25.2479 139.823 26.0436 142.367 26.8403C 146.539 28.1473 150.72 29.4569 154.882 30.8373C 161.281 32.863 166.851 31.7751 171.786 27.2725C 177.084 22.434 182.482 17.6608 187.897 12.9705C 198.497 3.72523 211.721 4.05197 221.69 13.979C 225.487 17.697 229.206 21.4769 232.935 25.2671C 234.348 26.7036 235.762 28.1415 237.183 29.5781C 241.699 34.1646 246.999 35.9028 253.327 34.3087C 255.958 33.6501 258.594 33.0179 261.23 32.3858C 265.185 31.4377 269.139 30.4895 273.074 29.452C 288.329 25.4559 300.762 32.7 304.841 47.9368C 306.688 54.6437 308.766 61.2154 310.927 67.7697C 312.831 73.5128 316.805 77.1748 322.833 78.6729C 330.043 80.4411 337.271 82.292 344.516 84.2258C 357.724 87.7581 364.95 99.0425 362.6 112.52C 362.454 113.365 362.31 114.21 362.165 115.052C 361.113 121.191 360.073 127.261 358.764 133.32C 357.131 140.761 359.301 146.534 364.998 151.391C 369.545 155.277 373.933 159.325 378.288 163.342Z"/>
</defs>
</svg>
