<svg width="400" height="400" viewBox="0 0 400 400" version="1.1" xmlns="http://www.w3.org/2000/svg" xmlns:xlink="http://www.w3.org/1999/xlink">
<title>L2 Mask - 3</title>
<desc>Created using Figma</desc>
<g id="Canvas" transform="translate(-1324 213)">
<g id="L2 Mask - 3">
<g id="Subtract">
<use xlink:href="#path0_fill" transform="translate(1324 -213)" fill="#FFFFFF"/>
</g>
</g>
</g>
<defs>
<path id="path0_fill" fill-rule="evenodd" d="M 400 0L 0 0L 0 400L 400 400L 400 0ZM 373.232 63.8494C 381.839 66.5574 384.888 70.5032 384.888 78.4723C 384.899 82.7871 384.912 87.1006 384.924 91.4133C 385.013 121.513 385.101 151.569 384.709 181.684L 384.687 183.228C 384.518 195.336 384.348 207.566 382.198 219.44C 377.446 245.746 363.19 268.647 344.45 289.46C 323.828 312.361 298.991 331.394 271.644 348.029C 249.588 361.491 226.724 373.716 201.797 383L 198.211 383C 197.462 382.727 196.704 382.477 195.948 382.229C 194.352 381.703 192.768 381.182 191.307 380.447C 186.423 378.042 181.509 375.68 176.598 373.32C 164.288 367.405 151.992 361.496 140.199 354.915C 108.1 336.888 79.1394 315.611 55.5582 289.383C 29.2871 260.214 14.2239 227.796 15.0309 190.194C 15.5922 164.685 15.4594 139.137 15.3264 113.579C 15.2683 102.394 15.2102 91.2068 15.2102 80.0197C 15.2102 69.8843 17.7207 66.7121 28.5698 63.3078C 54.1543 55.2095 79.7388 47.18 105.323 39.1505C 118.114 35.1361 130.905 31.1217 143.696 27.0987C 161.629 21.4507 179.561 15.7254 197.404 10L 202.784 10C 203.31 10.1876 203.835 10.3752 204.359 10.5625C 207.941 11.8427 211.481 13.1079 215.157 14.2553C 267.879 30.7351 320.6 47.2149 373.232 63.8494Z"/>
</defs>
</svg>
